<svg xmlns="http://www.w3.org/2000/svg" width="1428" height="400" fill="none" viewBox="0 0 1428 400">
  <path fill="#126C86" d="M200 400c110.457 0 200-89.543 200-200S310.457 0 200 0 0 89.543 0 200s89.543 200 200 200Z"/>
  <path fill="#fff" d="M306.075 234.943c-2.129 0-4.102-1.506-4.673-3.843l-22.742-89.667c-.363-1.35-.155-2.752.468-3.946a4.925 4.925 0 0 1 2.959-2.441l35.047-10.072c2.596-.779 5.244.882 5.919 3.686l22.638 89.824c.311 1.35.155 2.751-.468 3.946a4.92 4.92 0 0 1-2.959 2.44l-34.943 9.917a5.444 5.444 0 0 1-1.246.156Zm-16.823-91.174 20.25 79.647 25.545-7.217-20.094-79.803-25.701 7.373Z"/>
  <path fill="#fff" d="M289.668 229.699c-5.764 0-11.475-1.817-16.407-5.347l-47.197-33.541c-4.672-3.323-10.695-3.375-15.42-.156l-17.965 12.305c-3.686 2.492-8.203 3.219-12.357 1.921-4.206-1.298-7.632-4.465-9.45-8.723-2.752-6.386-1.35-13.914 3.479-18.639l30.893-30.374c7.892-7.788 19.159-10.488 29.439-7.165l23.676 7.736a27.065 27.065 0 0 0 16.355.208l9.865-2.96c1.247-.363 2.597-.207 3.687.467 1.142.675 1.921 1.818 2.284 3.168l18.017 70.976c.675 2.7-.727 5.451-3.219 6.334l-6.646 2.233c-3.011 1.038-6.023 1.557-9.034 1.557Zm-71.444-51.765c4.569 0 9.19 1.402 13.188 4.258l47.197 33.541c5.088 3.634 11.318 4.569 17.134 2.596l2.18-.727-15.472-61.111-5.14 1.557a36.344 36.344 0 0 1-21.807-.311l-23.676-7.736c-6.958-2.285-14.642-.416-19.99 4.88l-30.893 30.374c-1.713 1.713-2.233 4.361-1.246 6.646.675 1.506 1.869 2.648 3.375 3.115 1.505.467 3.063.208 4.413-.675l17.965-12.305a21.864 21.864 0 0 1 12.772-4.102Z"/>
  <path fill="#fff" d="M121.184 234.736a5.019 5.019 0 0 1-2.077-.468l-22.015-11.059c-2.336-1.194-3.426-4.102-2.44-6.646l24.663-65.628c.83-2.233 3.011-3.531 5.192-3.219l16.77 2.648c4.206.675 8.515.207 12.513-1.35l34.995-13.655c4.829-1.87 10.125-1.818 14.901.259l13.292 5.763c2.492 1.091 3.687 4.102 2.7 6.75-.986 2.648-3.842 3.946-6.334 2.856l-13.292-5.763a10.647 10.647 0 0 0-7.996-.156l-34.995 13.655c-5.503 2.129-11.474 2.804-17.238 1.869l-12.98-2.077-21.547 57.269 17.861 8.931c2.44 1.194 3.478 4.309 2.336 6.905-.727 1.973-2.492 3.116-4.309 3.116Z"/>
  <path fill="#fff" d="M126.584 254.776c-2.96 0-5.867-.986-8.36-2.855-6.542-4.933-8.099-14.694-3.478-21.651l6.126-9.294c2.233-3.375 5.556-5.66 9.398-6.335 3.842-.674 7.684.26 10.852 2.648 6.542 4.933 8.099 14.694 3.478 21.652l-6.126 9.293c-2.233 3.375-5.556 5.66-9.398 6.335a13.82 13.82 0 0 1-2.492.207Zm6.178-29.958c-.259 0-.571 0-.83.052-1.247.208-2.389.986-3.116 2.077l-6.126 9.294c-1.506 2.336-1.039 5.555 1.142 7.165a4.689 4.689 0 0 0 3.582.882c1.246-.207 2.389-.986 3.116-2.076l6.126-9.294c1.506-2.337 1.039-5.556-1.142-7.165-.831-.623-1.765-.935-2.752-.935Z"/>
  <path fill="#fff" d="M139.824 271.703c-2.96 0-5.971-.935-8.567-2.908-6.698-5.088-8.308-15.057-3.531-22.222l18.484-27.934c4.725-7.165 14.07-8.878 20.768-3.79s8.308 15.057 3.531 22.222l-18.484 27.934c-2.908 4.309-7.529 6.698-12.201 6.698Zm18.483-49.481c-1.609 0-3.219.831-4.257 2.336l-18.484 27.934c-1.661 2.492-1.09 5.971 1.246 7.736 2.337 1.766 5.608 1.194 7.217-1.35l18.484-27.933c1.662-2.492 1.09-5.971-1.246-7.737-.883-.623-1.921-.986-2.96-.986Z"/>
  <path fill="#fff" d="M160.592 277.518c-2.96 0-5.971-.934-8.567-2.907-6.698-5.088-8.307-15.057-3.531-22.222l13.188-19.938c4.725-7.165 14.071-8.879 20.769-3.79 3.271 2.44 5.399 6.126 6.074 10.332.675 4.206-.207 8.411-2.544 11.89l-13.188 19.886c-2.907 4.413-7.528 6.749-12.201 6.749Zm13.188-41.433c-.312 0-.571 0-.883.104-1.35.26-2.544 1.039-3.375 2.285l-13.188 19.938c-.778 1.194-1.09 2.699-.882 4.153.207 1.454.986 2.752 2.128 3.583 2.337 1.765 5.608 1.194 7.217-1.35l13.188-19.938c.779-1.194 1.091-2.7.883-4.154-.259-1.453-.986-2.751-2.129-3.582-.83-.727-1.869-1.039-2.959-1.039Z"/>
  <path fill="#fff" d="M178.712 288.525c-3.115 0-6.178-1.038-8.826-3.011-6.906-5.244-8.515-15.473-3.635-22.846l10.385-15.68c2.388-3.582 5.867-5.971 9.916-6.698 4.05-.726 8.1.26 11.423 2.804 3.323 2.544 5.556 6.283 6.231 10.592.675 4.309-.26 8.671-2.596 12.253l-10.385 15.681c-2.388 3.582-5.867 5.971-9.917 6.697-.83.104-1.713.208-2.596.208Zm10.437-38.11c-.312 0-.624.052-.935.104-1.454.259-2.752 1.142-3.635 2.44l-10.384 15.68c-1.765 2.7-1.194 6.439 1.35 8.36 1.246.934 2.7 1.298 4.154 1.038 1.454-.26 2.752-1.142 3.634-2.44l10.385-15.68c.882-1.298 1.194-2.908.934-4.466-.259-1.557-1.038-2.959-2.284-3.894-.987-.727-2.077-1.142-3.219-1.142Z"/>
  <path fill="#fff" d="M221.599 282.762a10.85 10.85 0 0 1-4.88-1.142l-22.898-11.215c-2.44-1.194-3.53-4.258-2.388-6.906 1.09-2.596 3.998-3.738 6.438-2.596l22.897 11.215c.935.468 1.973.156 2.545-.727.467-.727.415-1.402.311-1.765-.104-.363-.311-1.038-1.038-1.454l-12.773-7.321c-2.336-1.35-3.271-4.517-1.973-7.061 1.246-2.544 4.206-3.479 6.594-2.129l12.721 7.321c2.959 1.714 5.088 4.673 5.867 8.204.779 3.478.104 7.217-1.817 10.124-2.233 3.531-5.868 5.452-9.606 5.452Z"/>
  <path fill="#fff" d="M239.875 275.493a12.98 12.98 0 0 1-6.074-1.505l-12.565-6.542c-2.389-1.247-3.427-4.362-2.233-6.958s4.05-3.686 6.49-2.388l12.565 6.542c1.817.934 3.946.363 5.088-1.454.623-.986.883-2.233.623-3.427-.259-1.194-.934-2.18-1.921-2.803l-36.967-23.001c-2.337-1.454-3.116-4.621-1.766-7.114 1.35-2.492 4.31-3.323 6.646-1.869l36.968 23.001c3.323 2.077 5.659 5.504 6.542 9.502.831 3.998.052 8.203-2.077 11.578-2.7 4.206-6.905 6.438-11.319 6.438Z"/>
  <path fill="#fff" d="M252.856 261.578c-2.493 0-4.985-.727-7.217-2.129l-28.972-18.172c-2.337-1.454-3.116-4.621-1.766-7.113s4.31-3.323 6.646-1.869l28.972 18.172c1.09.675 2.337.831 3.583.519a4.554 4.554 0 0 0 2.803-2.388c1.195-2.337.468-5.244-1.661-6.594l-36.293-23.832c-2.284-1.506-3.011-4.725-1.609-7.165 1.401-2.44 4.413-3.219 6.697-1.713l36.293 23.831c6.542 4.31 8.775 13.292 5.088 20.509-1.869 3.687-4.984 6.283-8.774 7.373-1.194.415-2.492.571-3.79.571Z"/>
  <path fill="#fff" d="M267.394 247.145c-3.116 0-6.179-.935-8.879-2.752l-14.226-9.606c-2.285-1.557-2.96-4.724-1.506-7.165 1.454-2.44 4.413-3.167 6.698-1.609l14.226 9.605c1.61 1.091 3.531 1.402 5.4.935 1.869-.468 3.427-1.714 4.361-3.479 1.869-3.427.935-7.84-2.18-10.021l-25.494-18.12c-2.232-1.61-2.855-4.829-1.35-7.217 1.454-2.389 4.518-3.064 6.75-1.454l25.493 18.121c7.373 5.244 9.658 15.732 5.193 23.935-2.285 4.206-6.023 7.217-10.489 8.359-1.35.312-2.648.468-3.997.468ZM95.12 233.801a4.298 4.298 0 0 1-1.766-.364l-36.033-14.849c-1.194-.519-2.18-1.454-2.7-2.752a5.584 5.584 0 0 1-.104-3.998l31.257-86.916c.934-2.648 3.686-3.998 6.178-3.011l38.058 14.538c1.246.467 2.285 1.505 2.804 2.803.519 1.298.571 2.804.052 4.102l-4.465 11.475-24.715 65.576-4.101 10.229c-.831 1.973-2.596 3.167-4.466 3.167Zm-29.803-23.053 27.154 11.163 2.233-5.504 24.663-65.524c.051-.052 2.544-6.49 2.544-6.49l-28.765-11.008-27.83 77.363Z"/>
  <path fill="#126C86" d="M593.265 142.923V257h-27.788v-68.414L539.964 257h-22.425l-25.676-68.576V257h-27.788V142.923h32.826l32.013 78.976 31.688-78.976h32.663Zm33.958 13.975c-4.875 0-8.884-1.408-12.025-4.225-3.034-2.925-4.55-6.5-4.55-10.725 0-4.333 1.516-7.908 4.55-10.725 3.141-2.925 7.15-4.388 12.025-4.388 4.767 0 8.667 1.463 11.7 4.388 3.142 2.817 4.713 6.392 4.713 10.725 0 4.225-1.571 7.8-4.713 10.725-3.033 2.817-6.933 4.225-11.7 4.225Zm13.813 9.425V257h-27.788v-90.677h27.788Zm70.676 67.114V257h-14.138c-10.075 0-17.93-2.438-23.563-7.313-5.633-4.983-8.45-13.054-8.45-24.213v-36.075h-11.05v-23.076h11.05v-22.1h27.788v22.1h18.2v23.076h-18.2v36.4c0 2.709.65 4.659 1.95 5.851 1.3 1.191 3.467 1.787 6.5 1.787h9.913Zm43.266-52.001c3.25-4.983 7.313-8.883 12.188-11.7 4.875-2.925 10.292-4.388 16.25-4.388v29.413h-7.638c-6.933 0-12.133 1.517-15.6 4.551-3.467 2.925-5.2 8.125-5.2 15.6V257H727.19v-90.677h27.788v15.113Zm36.195 30.063c0-9.317 1.733-17.496 5.2-24.538 3.575-7.042 8.396-12.458 14.463-16.25 6.067-3.792 12.838-5.688 20.313-5.688 6.391 0 11.971 1.3 16.737 3.9 4.876 2.601 8.613 6.013 11.213 10.238v-12.838h27.788V257h-27.788v-12.838c-2.708 4.225-6.5 7.638-11.375 10.238-4.767 2.6-10.346 3.9-16.738 3.9-7.367 0-14.083-1.896-20.15-5.688-6.067-3.9-10.888-9.371-14.463-16.412-3.467-7.15-5.2-15.384-5.2-24.701Zm67.926.163c0-6.934-1.95-12.405-5.85-16.413-3.792-4.008-8.45-6.013-13.975-6.013s-10.238 2.005-14.138 6.013c-3.792 3.9-5.688 9.317-5.688 16.25 0 6.934 1.896 12.459 5.688 16.575 3.9 4.009 8.613 6.013 14.138 6.013s10.183-2.004 13.975-6.013c3.9-4.008 5.85-9.479 5.85-16.412Zm134.831-32.013c0 6.608-1.517 12.675-4.551 18.2-3.033 5.417-7.691 9.804-13.975 13.163-6.283 3.358-14.083 5.037-23.4 5.037h-17.225V257h-27.788V142.923h45.013c9.1 0 16.792 1.571 23.075 4.713 6.284 3.141 10.996 7.475 14.138 13 3.142 5.525 4.713 11.863 4.713 19.013Zm-44.039 14.3c5.309 0 9.263-1.246 11.863-3.738 2.6-2.491 3.9-6.012 3.9-10.562s-1.3-8.071-3.9-10.563c-2.6-2.492-6.554-3.738-11.863-3.738h-15.112v28.601h15.112Zm52.979 17.55c0-9.317 1.73-17.496 5.2-24.538 3.58-7.042 8.4-12.458 14.46-16.25 6.07-3.792 12.84-5.688 20.32-5.688 6.39 0 11.97 1.3 16.73 3.9 4.88 2.601 8.62 6.013 11.22 10.238v-12.838h27.79V257h-27.79v-12.838c-2.71 4.225-6.5 7.638-11.38 10.238-4.76 2.6-10.34 3.9-16.74 3.9-7.36 0-14.08-1.896-20.15-5.688-6.06-3.9-10.88-9.371-14.46-16.412-3.47-7.15-5.2-15.384-5.2-24.701Zm67.93.163c0-6.934-1.95-12.405-5.85-16.413-3.79-4.008-8.45-6.013-13.98-6.013-5.52 0-10.24 2.005-14.14 6.013-3.79 3.9-5.68 9.317-5.68 16.25 0 6.934 1.89 12.459 5.68 16.575 3.9 4.009 8.62 6.013 14.14 6.013 5.53 0 10.19-2.004 13.98-6.013 3.9-4.008 5.85-9.479 5.85-16.412Zm103.14-46.314c10.62 0 19.07 3.467 25.35 10.401 6.39 6.825 9.59 16.25 9.59 28.275V257h-27.63v-49.238c0-6.067-1.57-10.78-4.71-14.138-3.14-3.358-7.37-5.038-12.68-5.038-5.3 0-9.53 1.68-12.67 5.038-3.14 3.358-4.71 8.071-4.71 14.138V257h-27.79v-90.677h27.79v12.026c2.81-4.009 6.6-7.15 11.37-9.426 4.77-2.383 10.13-3.575 16.09-3.575Zm139.72 44.851c0 2.6-.16 5.309-.48 8.125h-62.89c.43 5.634 2.22 9.967 5.36 13.001 3.25 2.925 7.2 4.387 11.86 4.387 6.94 0 11.76-2.925 14.47-8.775h29.57c-1.52 5.958-4.28 11.321-8.29 16.088-3.9 4.767-8.83 8.504-14.78 11.212-5.96 2.709-12.63 4.063-19.99 4.063-8.89 0-16.79-1.896-23.73-5.688-6.93-3.791-12.35-9.208-16.25-16.25-3.9-7.042-5.85-15.275-5.85-24.7 0-9.425 1.9-17.659 5.69-24.701 3.9-7.042 9.32-12.458 16.25-16.25s14.9-5.688 23.89-5.688c8.77 0 16.57 1.842 23.4 5.526 6.82 3.683 12.13 8.937 15.92 15.762 3.9 6.825 5.85 14.788 5.85 23.888Zm-28.43-7.312c0-4.767-1.63-8.559-4.88-11.376-3.25-2.816-7.31-4.225-12.19-4.225-4.66 0-8.61 1.354-11.86 4.063-3.14 2.708-5.09 6.554-5.85 11.538h34.78Zm98.34-37.539c10.62 0 19.07 3.467 25.35 10.401 6.4 6.825 9.59 16.25 9.59 28.275V257h-27.62v-49.238c0-6.067-1.57-10.78-4.72-14.138-3.14-3.358-7.36-5.038-12.67-5.038s-9.53 1.68-12.68 5.038c-3.14 3.358-4.71 8.071-4.71 14.138V257h-27.79v-90.677h27.79v12.026c2.82-4.009 6.61-7.15 11.38-9.426 4.76-2.383 10.13-3.575 16.08-3.575Z"/>
</svg>
