<svg width="201" height="119" viewBox="0 0 201 119" fill="none" xmlns="http://www.w3.org/2000/svg">
<path fill-rule="evenodd" clip-rule="evenodd" d="M87.7605 95.3889C106.001 95.3889 120.789 80.5895 120.789 62.3334C120.789 44.0773 106.001 29.2778 87.7605 29.2778C69.5195 29.2778 54.7323 44.0773 54.7323 62.3334C54.7323 80.5895 69.5195 95.3889 87.7605 95.3889ZM102.927 53.9389C103.767 52.8581 103.572 51.3005 102.493 50.4599C101.413 49.6193 99.8564 49.814 99.0164 50.8948L85.782 67.9245C85.4878 68.3032 84.9342 68.3524 84.5779 68.0314L76.2063 60.4907C75.1894 59.5748 73.6232 59.6573 72.708 60.675C71.7928 61.6927 71.8752 63.2603 72.8921 64.1762L81.2637 71.7169C83.7578 73.9634 87.6327 73.6194 89.6927 70.9687L102.927 53.9389Z" fill="#246BFD"/>
<ellipse cx="133.056" cy="5.66667" rx="5.66197" ry="5.66667" fill="#246BFD"/>
<path d="M11.3239 96.3332C11.3239 99.4628 8.78899 102 5.66197 102C2.53495 102 0 99.4628 0 96.3332C0 93.2036 2.53495 90.6665 5.66197 90.6665C8.78899 90.6665 11.3239 93.2036 11.3239 96.3332ZM2.83099 96.3332C2.83099 97.898 4.09846 99.1665 5.66197 99.1665C7.22548 99.1665 8.49296 97.898 8.49296 96.3332C8.49296 94.7684 7.22548 93.4998 5.66197 93.4998C4.09846 93.4998 2.83099 94.7684 2.83099 96.3332Z" fill="#246BFD"/>
<path d="M201 116.167C201 117.732 199.733 119 198.169 119C196.605 119 195.338 117.732 195.338 116.167C195.338 114.602 196.605 113.333 198.169 113.333C199.733 113.333 201 114.602 201 116.167ZM196.754 116.167C196.754 116.949 197.387 117.583 198.169 117.583C198.951 117.583 199.584 116.949 199.584 116.167C199.584 115.384 198.951 114.75 198.169 114.75C197.387 114.75 196.754 115.384 196.754 116.167Z" fill="#246BFD"/>
<path d="M174.106 69.4168C174.106 73.3288 170.937 76.5002 167.028 76.5002C163.119 76.5002 159.951 73.3288 159.951 69.4168C159.951 65.5048 163.119 62.3335 167.028 62.3335C170.937 62.3335 174.106 65.5048 174.106 69.4168ZM162.544 69.4168C162.544 71.8955 164.552 73.9048 167.028 73.9048C169.505 73.9048 171.512 71.8955 171.512 69.4168C171.512 66.9382 169.505 64.9288 167.028 64.9288C164.552 64.9288 162.544 66.9382 162.544 69.4168Z" fill="#246BFD"/>
<ellipse cx="38.2183" cy="25.4998" rx="2.83099" ry="2.83333" fill="#246BFD"/>
</svg>
